<svg width="256" height="256" viewBox="0 0 256 256" fill="none" xmlns="http://www.w3.org/2000/svg">
<path d="M231.67 60.89C225.697 53.6975 217.149 49.1253 207.85 48.15C207.26 42.7781 205.468 37.608 202.607 33.0233C199.746 28.4385 195.889 24.5567 191.323 21.6659C186.757 18.775 181.598 16.9493 176.231 16.324C170.863 15.6988 165.423 16.2902 160.314 18.0542C155.206 19.8183 150.561 22.7098 146.723 26.5142C142.884 30.3187 139.952 34.9385 138.143 40.0309C136.334 45.1234 135.694 50.5578 136.272 55.9311C136.85 61.3043 138.63 66.4786 141.48 71.07C141.484 71.0966 141.484 71.1235 141.48 71.15L71.1702 141.51H71.0702C66.4788 138.66 61.3046 136.88 55.9313 136.302C50.558 135.724 45.1236 136.363 40.0312 138.173C34.9387 139.982 30.3189 142.914 26.5145 146.752C22.71 150.591 19.8185 155.236 18.0544 160.344C16.2904 165.452 15.699 170.892 16.3243 176.26C16.9495 181.628 18.7752 186.787 21.6661 191.353C24.557 195.919 28.4387 199.775 33.0235 202.636C37.6082 205.498 42.7783 207.29 48.1502 207.88C48.7405 213.252 50.5327 218.422 53.3938 223.007C56.2549 227.592 60.1115 231.473 64.6776 234.364C69.2436 237.255 74.402 239.081 79.7699 239.706C85.1379 240.331 90.5777 239.74 95.686 237.976C100.794 236.212 105.44 233.32 109.278 229.516C113.116 225.711 116.049 221.092 117.858 215.999C119.667 210.907 120.306 205.472 119.728 200.099C119.151 194.726 117.371 189.551 114.52 184.96V184.88L184.87 114.52H184.97C192.235 119.096 200.896 120.925 209.391 119.676C217.886 118.428 225.655 114.184 231.296 107.712C236.937 101.239 240.079 92.963 240.155 84.3773C240.231 75.7917 237.236 67.4616 231.71 60.89H231.67ZM219.1 97.16C215.972 100.742 211.67 103.092 206.965 103.788C202.261 104.485 197.462 103.482 193.43 100.96C190.361 99.0123 186.719 98.1679 183.106 98.566C179.492 98.9641 176.122 100.581 173.55 103.15L103.15 173.55C100.587 176.127 98.978 179.499 98.5872 183.113C98.1964 186.726 99.0475 190.365 101 193.43C102.703 196.169 103.718 199.279 103.959 202.495C104.2 205.711 103.66 208.938 102.384 211.9C101.108 214.862 99.1354 217.471 96.6332 219.506C94.1311 221.541 91.174 222.94 88.0141 223.585C84.8542 224.23 81.5851 224.101 78.4858 223.21C75.3864 222.318 72.5486 220.69 70.2144 218.465C67.8801 216.24 66.1187 213.483 65.0802 210.43C64.0417 207.376 63.7569 204.117 64.2502 200.93C64.4294 199.788 64.359 198.621 64.0437 197.508C63.7285 196.396 63.176 195.366 62.4242 194.487C61.6724 193.609 60.7393 192.904 59.689 192.422C58.6387 191.939 57.4962 191.689 56.3402 191.69C55.9283 191.694 55.5173 191.727 55.1102 191.79C51.9264 192.28 48.6714 191.993 45.6222 190.954C42.573 189.916 39.8198 188.156 37.5967 185.825C35.3737 183.494 33.7466 180.66 32.854 177.565C31.9613 174.47 31.8294 171.205 32.4696 168.048C33.1097 164.891 34.503 161.935 36.5308 159.432C38.5585 156.929 41.1609 154.953 44.1164 153.672C47.0719 152.391 50.2932 151.843 53.5061 152.074C56.719 152.305 59.8286 153.309 62.5702 155C65.6398 156.948 69.2811 157.792 72.8946 157.394C76.5081 156.996 79.8783 155.379 82.4502 152.81L152.85 82.41C155.403 79.8359 157.007 76.4708 157.397 72.8663C157.788 69.2617 156.943 65.6314 155 62.57C153.298 59.8311 152.282 56.721 152.041 53.505C151.801 50.2889 152.341 47.0623 153.616 44.1003C154.892 41.1382 156.865 38.5285 159.367 36.4938C161.869 34.459 164.826 33.0596 167.986 32.4147C171.146 31.7698 174.415 31.8986 177.515 32.7902C180.614 33.6818 183.452 35.3097 185.786 37.535C188.12 39.7604 189.882 42.5172 190.92 45.5705C191.959 48.6238 192.244 51.8829 191.75 55.07C191.556 56.3147 191.658 57.5878 192.048 58.7856C192.439 59.9834 193.106 61.0721 193.997 61.9629C194.888 62.8538 195.977 63.5216 197.175 63.9121C198.372 64.3026 199.646 64.4047 200.89 64.21C204.963 63.551 209.139 64.1675 212.848 65.9751C216.556 67.7826 219.615 70.6928 221.605 74.3067C223.595 77.9206 224.418 82.0614 223.963 86.1617C223.507 90.2619 221.795 94.121 219.06 97.21L219.1 97.16Z" fill="#2463EB"/>
</svg>
