<svg width="194" height="51" viewBox="0 0 194 51" fill="none" xmlns="http://www.w3.org/2000/svg">
<path d="M15.4194 5.90045L15.5986 5.92285L15.733 6.03485L15.9793 6.34844L16.1809 6.57244L16.4497 6.86363L16.6513 7.06522L16.8305 7.19962L17.1665 7.40122L17.7041 7.71481L18.1969 7.9612L18.3985 8.0732L18.6001 8.1404L19.5633 8.1628L20.168 8.23L20.728 8.34199L21.0864 8.45399L21.3552 8.56599L21.4448 8.54359L21.6464 8.1628L21.7808 7.9836H21.8032V8.1628L21.6688 8.76758L21.512 9.64116L21.4 10.4923L21.3328 11.2987L21.3104 11.7691V12.4635L21.3552 13.2027L21.4672 14.1883L21.624 14.9946L21.8256 15.8234L22.0944 16.6522L22.408 17.4362L22.6992 18.0634L22.8784 18.3994L23.0576 18.7578L23.3264 18.6906L23.6848 18.5114L24.1104 18.3098L24.4911 18.0858L24.9615 17.7946L25.3423 17.5258L25.7231 17.2346L25.9695 17.033L26.1935 16.8314L26.4847 16.5626L26.8879 16.1594L27.0447 15.9802L27.2911 15.689L27.6047 15.2634L27.8959 14.8378L28.2319 14.2779L28.5007 13.7851L28.5679 13.6059V13.5163L28.0751 13.2475L27.8063 13.0459L27.4703 12.7547L26.8655 12.1499L26.7087 11.9707L26.4175 11.6347L26.1935 11.3883L25.9919 11.1419L25.7007 10.8059L25.4991 10.5595L25.2975 10.3355L25.0959 10.0892L24.8719 9.84276L24.7151 9.66356L24.4687 9.39477L24.312 9.21557L24.1104 8.99158L23.9536 8.81238L23.4608 8.3196L23.0352 8.006L22.856 7.87161V7.84921L23.0352 7.87161L23.304 8.006L23.5504 8.1628L23.864 8.40919L24.1552 8.67799L24.5583 9.08118L24.7151 9.26037L24.9839 9.57397L25.3423 9.95476L25.6111 10.2236L25.9247 10.4699L26.1039 10.6267L26.4399 10.8731L26.7983 11.1195L27.2463 11.4107L27.8063 11.7467L28.4111 12.0603L29.0158 12.3515L29.1502 12.4635L29.1278 12.6203L29.083 12.6875L29.0606 12.9115L28.9038 13.5835L28.7246 14.1659L28.4111 14.9498L28.0975 15.6218L27.8735 16.025L27.6719 16.361L27.1567 17.1226L26.9775 17.3466L26.6863 17.6826L26.3279 18.0634L26.1039 18.2874L25.9247 18.4442L25.7007 18.6458L25.3871 18.8921L24.9839 19.1609L24.5807 19.4521L24.1552 19.7433L23.752 19.9897L23.3264 20.1913L22.7888 20.4377L22.632 20.3033L22.4304 20.0121L22.1392 19.5193L21.8256 18.9369L21.5344 18.3322L21.3104 17.7498L21.176 17.3466L20.84 16.1146L20.7056 15.577L20.5936 14.9498L20.5264 14.4571L20.4816 14.0091L20.4592 13.6283V12.5755L20.5264 11.7019L20.5936 11.2315V11.1195L20.1904 10.9851L19.5857 10.8283L19.2497 10.7835L18.8465 10.7611L18.7793 10.7387L18.8017 10.6267L19.0929 10.3355L19.3393 10.134L19.6305 9.86516L19.9441 9.59637L20.0337 9.48437H20.0785L20.1233 9.37237L18.8465 9.39477L18.1745 9.50677L17.6593 9.64116L17.0769 9.86516L16.5169 10.1564L16.1809 10.3803L15.9569 10.5371L15.6434 10.8059L15.4866 10.9627L15.4418 11.0299H15.397L15.3522 11.1195L15.1282 11.4331L14.7922 11.9707L14.613 12.3291L14.4338 12.7323L14.2546 13.0907L14.053 13.4715L13.829 13.7627L13.6722 13.9419L13.3362 14.2779L13.0674 14.4795L12.6194 14.7482L12.2386 14.905L11.8578 15.017L11.5667 15.0618L10.8051 15.1066H8.13953L8.54272 15.353L8.85631 15.5546L9.05791 15.7786L9.16991 16.0026L9.21471 16.2266L9.14751 16.4282L9.01311 16.6522L8.69952 16.9658L8.38592 17.1674L8.02753 17.3466L7.60194 17.5258L6.97476 17.705L6.32517 17.8394L5.85478 17.9066L6.12358 18.713L6.28037 19.0713L6.52677 19.5417L6.70596 19.8105L6.99716 20.1465L7.19875 20.3481L7.51235 20.5945L7.80354 20.7961L8.25153 21.0649L8.76672 21.3337L9.5283 21.6473L10.0435 21.8041L10.5587 21.9161L11.3203 22.0057L11.6786 22.0281H12.1266L12.821 21.9609L13.269 21.8713L13.941 21.6473L14.501 21.4009L15.0162 21.1321L15.3522 20.9081L15.3298 20.7961L15.0834 20.5497L14.9714 20.3929V20.3705H15.0834L15.5314 20.6841L15.9793 21.0873L16.2033 21.4233L16.3825 21.7369L16.4497 21.8937L16.4273 21.9833L16.2481 21.8265L16.0241 21.5577L15.8897 21.3785L15.845 21.3337L15.6882 21.3561L15.2402 21.6473L14.5682 21.9833L13.8514 22.2969L13.3586 22.4761L13.0674 22.5657H13.0002V22.6105H13.2242L14.3442 22.7449L15.1506 22.8793L15.8673 23.0585L16.4497 23.26L17.0545 23.5288L17.6817 23.8648L18.1521 24.156L18.1969 24.2232L18.1745 24.3128L17.0545 24.0664L16.4049 23.9544L15.3522 23.7976L15.0162 23.7528L14.9714 23.7304L12.933 23.484L11.8802 23.3496L11.0067 23.1928L10.4467 23.0585L9.86429 22.8793L9.3939 22.7001L8.87871 22.4761L8.38592 22.2521L7.89314 21.9833L7.53474 21.7817L7.22115 21.5577L6.99716 21.3785L6.72836 21.1321L6.54917 20.9529L6.34757 20.7065L6.05638 20.3033L5.83238 19.9449L5.56359 19.4297L5.3844 19.0041L5.2724 18.6234L5.2052 18.2426L5.1828 18.041V16.8314L5.1604 16.249V15.9354L5.1828 15.577L5.2948 15.1738L5.42919 14.9274L5.54119 14.793L5.72039 14.6362L5.96678 14.4795L6.19078 14.3899L6.48197 14.3451H6.90756L9.86429 14.4123H11.2979L11.6786 14.3675L12.1266 14.2331L12.485 14.0315L12.7986 13.8075L13.045 13.6059L13.3138 13.3371L13.4706 13.0907L13.605 12.7771L13.8066 12.1051L14.0754 11.4555L14.2994 11.0299L14.501 10.6715L14.5906 10.4923L14.613 10.4027L14.4786 10.4923L14.1202 10.8283L13.493 11.3211L13.2242 11.5227L12.9106 11.7243L12.3282 12.0379L11.9474 12.2171L11.1635 12.4859L10.8947 12.5531H10.7827L10.8051 12.4635L11.1187 12.0155L11.4771 11.4779L11.7234 11.0971L12.037 10.5147L12.261 10.022L12.5522 9.26037L12.9106 8.36439L13.0898 7.9612L13.3138 7.53561L13.493 7.26682L13.6946 6.99803L13.941 6.72923L14.1426 6.55004L14.5234 6.30364L14.8594 6.12445L15.285 5.94525L15.4194 5.90045ZM15.8002 7.67001L15.4418 7.73721L14.9938 7.89401L14.6578 8.0732L14.3442 8.2972L14.053 8.54359L13.6498 8.94678L13.4482 9.19317L13.1346 9.61876L12.8882 9.99956L12.5298 10.6043L12.261 11.0747L12.1266 11.3883L12.3282 11.3211L12.6866 11.0971L13.0002 10.8283L13.4034 10.5371L14.6802 9.68596L14.9714 9.50677L15.4642 9.21557L15.9793 8.94678L16.6513 8.65559L17.0321 8.52119L17.2561 8.43159L17.3233 8.38679L17.2785 8.2972L17.0993 8.1404L16.6737 7.87161L16.4497 7.75961L16.0689 7.67001H15.8002Z" fill="black"/>
<path d="M25.1183 19.4073L25.1631 19.4521L25.2751 19.8553L25.4319 20.5721L25.4767 20.9081L25.4991 21.2665V21.6921L25.4543 22.2969L25.3647 23.0809L25.2975 23.3945V23.5289L25.5439 23.708L25.9023 23.932L26.2831 24.2232L26.6415 24.5144L26.9551 24.7832L27.2463 25.052L27.4703 25.276L27.6719 25.5224L27.9855 25.9032L28.2767 26.3064L28.5007 26.62L28.747 27.0008L29.083 27.5608L29.3518 28.0311L29.6654 28.6807L29.9118 29.3079L30.203 30.1367L30.5166 31.0103L30.8974 32.0855L31.099 32.6454L31.3678 33.407L31.5246 33.6758L31.5694 33.743L31.6142 33.2502V32.959L31.5246 32.0631L31.4126 31.0999L31.3454 30.6295L31.2782 30.2711V30.1591L31.4126 30.2039L31.9054 30.6967L32.0846 30.8535L32.3982 31.1671L32.6222 31.4583L32.9581 31.9735L33.1821 32.3318L33.3613 32.6454L33.5405 33.0038L33.8093 33.6086L34.0333 34.2358L34.2349 34.975L34.3245 35.4454L34.4141 36.1622L34.4589 36.6549L34.4813 37.0581V38.0437L34.4365 38.9845L34.3469 39.8805L34.2349 40.3957L34.0109 40.9332L33.8093 41.2468L33.6301 41.4708L33.3837 41.7172L33.0701 41.9412L32.7342 42.1204L32.4878 42.21L32.0174 42.2996L31.8158 42.322H31.1438L30.5838 42.2772L30.1806 42.2548V42.1876L30.9422 41.8964L31.323 41.6948L31.7486 41.4036L32.0174 41.1572L32.1742 41.0004L32.3982 40.7093L32.5998 40.3733L32.7566 40.0597L32.9357 39.5221L33.0701 38.8725L33.1373 38.3349L33.1597 38.0213V37.0133L33.0925 35.8486L32.9357 34.303L32.8014 33.4518L32.6446 32.9142L32.4878 32.5334L32.2638 32.0407L32.0622 31.7495L32.0398 31.6599L32.0174 31.6823V31.9735L32.1518 32.6678L32.3086 33.4742L32.4654 34.5718L32.5326 35.3334V36.1174L32.4878 36.5877L32.3534 37.0805L32.1742 37.5285L31.995 37.8645L31.6814 38.3349L31.3902 38.6933L31.099 38.9845L30.9198 39.1413L30.6734 39.3429L30.315 39.5669L29.8446 39.7909L29.2174 40.0373L28.6798 40.2165L28.5007 40.2389L28.5231 40.1493L28.9262 39.9253L29.2398 39.7461L29.4862 39.5893L29.7774 39.3205L29.9566 39.1189L30.2254 38.7605L30.427 38.4245L30.6062 38.0437L30.7406 37.6405L30.8302 37.2149L30.875 36.7445V36.4533L30.8302 35.9606L30.6958 35.3334L30.5838 34.9526L30.3374 34.3254L30.1582 33.9446L29.8894 33.4518L29.643 33.0262L29.3966 32.6678L29.1502 32.3766L28.9486 32.1527L28.747 31.9511L28.5679 31.7943L28.2767 31.5479L27.8959 31.2567L27.4703 30.9431L27.4255 30.8759L27.4927 30.8535L27.7839 30.9431L28.3663 31.1671L28.747 31.3687L28.971 31.5255L29.2174 31.7047L29.531 31.9735L29.6878 32.175L29.8222 32.3318L29.755 32.1303L29.6206 31.6599L29.3742 31.0327L29.1278 30.4727L28.8142 29.8231L28.635 29.4423L28.3663 28.9495L28.1423 28.5463L27.8063 28.0087L27.5151 27.6056L27.2687 27.2472L26.9999 26.8888L26.7535 26.5976L26.5519 26.3512L26.3503 26.1272L26.1935 25.948L25.8575 25.5896L25.4319 25.164L25.1855 24.9624L24.8271 24.6712L24.6703 24.5368L24.6479 24.38L24.7375 23.9992L24.8047 23.4393L24.8271 23.0585V22.5881L24.7823 21.9161L24.7151 21.4233L24.5583 20.7961L24.4015 20.3481L24.2896 20.1241L24.312 20.0345L24.4239 19.9001L24.6479 19.7433L24.9615 19.4969L25.1183 19.4073Z" fill="black"/>
<path d="M8.85628 42.6132H9.66266L10.2674 42.658L10.8274 42.7476L11.2082 42.8596L11.5666 43.0388L11.813 43.218L12.1042 43.4644L12.261 43.6212L12.4178 43.8004L12.709 44.0244L13.157 44.2932L13.5154 44.4724L13.829 44.6068L14.3441 44.7636L14.6801 44.8308L15.3521 44.898H16.9201L17.8161 44.8308L18.4881 44.7412L19.3168 44.5844L20.1904 44.3828L20.9744 44.1588L21.7808 43.89L22.408 43.666L22.9231 43.4868L23.4831 43.3076L24.5807 43.0164L25.3199 42.8596L26.1487 42.7252L26.7983 42.658L27.2686 42.6356H29.083L30.091 42.7028L30.8302 42.7924L31.4125 42.9044L32.0173 43.0612L32.6221 43.2404L33.2717 43.4644L33.8541 43.7108L34.3917 43.9572L35.1981 44.3604L35.6237 44.5844L35.9596 44.786L36.0492 44.8756L36.0268 44.9428L35.3549 44.786L34.7277 44.6516L33.3165 44.4276L31.9053 44.2484L31.0094 44.1588L30.0462 44.0916L29.4414 44.0692H28.2542L27.2686 44.1364L26.2159 44.2484L25.2975 44.3828L24.3567 44.562L23.2591 44.8308L22.296 45.0996L21.6688 45.2788L20.8624 45.4804L20.28 45.5924L18.8016 45.8163L17.7937 45.9283L17.1217 45.9731H15.6657L15.0161 45.9059L14.2993 45.7715L13.6722 45.5924L13.2914 45.4356L12.8658 45.1892L12.485 44.9204L12.149 44.6964L11.6786 44.4724L11.0514 44.2484L10.4914 44.0916L9.86425 43.9572L9.03547 43.8452L8.40829 43.8004H7.44511L6.75073 43.8452L5.96674 43.9348L5.29476 44.0468L4.35398 44.2484L3.32361 44.5844L3.23401 44.562L3.4132 44.3828L3.8164 44.114L4.35398 43.8004L4.89157 43.5092L5.33956 43.3076L6.16834 43.0164L6.90752 42.8148L7.37791 42.7252L7.9379 42.658L8.25149 42.6356L8.85628 42.6132Z" fill="black"/>
<path d="M14.9937 23.7753L15.1057 23.8425L15.0833 23.9769L14.9265 24.2233L14.7025 24.5593L14.4561 24.9848L14.2321 25.4776L13.9857 26.2168L13.8737 26.7992L13.7841 27.5384V28.2552L13.8737 28.9495L13.9857 29.5319L14.1201 29.9799L14.3217 30.5399L14.5009 30.8983L14.7249 31.3239L14.8593 31.5479L14.9713 31.6375L15.1057 31.3687L15.3297 30.7415L15.5761 29.9799L15.7776 29.1511L15.9568 28.2552L16.0688 27.628L16.1136 27.5384L16.1584 27.5608V28.2552L16.136 29.5095L16.0464 30.9431L15.8896 32.4439L15.7329 33.5414L15.5089 34.8406L15.3297 35.759L15.1953 36.4982L14.9489 37.5285L14.6129 38.5813L14.3665 39.2309L14.2545 39.4549L14.1649 39.5669L13.9633 39.6565L13.6721 39.7685L13.4929 39.9253H13.4481V39.9701H13.4033L13.3585 40.0821L13.2913 40.2837L13.5601 40.1941L13.7841 40.0597L14.0529 39.9701L14.1873 39.9477H14.5233L14.8593 40.0149L15.1953 40.1493L15.5537 40.3509L15.8 40.5525L15.8448 40.6869H15.3073L14.7473 40.7317L14.2321 40.8213L13.9409 40.9333L13.6945 41.1349L13.4257 41.4933L13.2465 41.6501L13.0449 41.6053L12.9329 41.5157L12.7985 41.2917L12.7089 41.0901L12.5297 41.1125L12.3505 41.2245L12.2609 41.3365L12.1041 41.6053L12.0593 41.8292L12.0817 42.1652L12.1041 42.434L12.0145 42.6804L11.9025 42.77L11.7009 42.7252L11.5889 42.7028L11.3874 42.546L11.3202 42.4788L11.2306 42.2324L11.2082 42.1204V41.6948L11.2754 41.3589L11.3874 41.0901L11.5665 40.8437L11.7233 40.6869L11.9025 40.5749L12.4625 40.3509L12.5745 40.2837L12.6417 40.0149V39.8805L12.6193 39.8581L12.5745 39.9253H12.3953L11.8129 40.0373L11.6337 40.1045L11.4322 40.3285L11.253 40.6421L11.0738 40.8885L10.7378 40.7765H10.5362L10.357 40.8437L10.245 40.9557L10.1554 41.1125L10.1106 41.2469V41.4485L10.1554 42.0084L10.1106 42.2324L10.0434 42.2996H9.84179L9.64019 42.1876L9.5058 42.0084L9.4386 41.6501V41.1573L9.5058 40.8213L9.66259 40.5077L9.86419 40.2837L10.2226 40.1045L10.7154 39.9925L10.8274 39.8805L10.9618 39.7013L11.141 39.5445L11.3426 39.4549L11.6785 39.3877H11.9473L12.3729 39.4997L12.5969 39.6117L12.6865 39.7013L12.8881 39.5445L13.0673 39.3429L13.4481 39.1189L13.5601 39.0069L13.6945 38.8277L13.9185 38.2005L14.1425 37.4389L14.5009 36.0726L14.8369 34.5046V34.2358L14.7249 34.1238L14.4785 33.855L14.1873 33.4742L13.9633 33.1382L13.6273 32.5783L13.3585 32.0631L13.0897 31.4583L12.7985 30.6295L12.5969 29.8231L12.5073 29.2855L12.4849 29.0839V27.8744L12.5745 27.292L12.7089 26.732L12.9329 26.1048L13.1121 25.7464L13.3361 25.3432L13.5601 25.0296L13.9633 24.5816L14.2097 24.3801L14.5681 24.0889L14.9265 23.8201L14.9937 23.7753Z" fill="black"/>
<path d="M23.192 32.287H23.2592L23.2368 32.3766L22.9904 32.5558L22.5872 32.847L22.2736 33.0934L22.0272 33.295L21.8032 33.4966L21.4224 33.8774L21.1984 34.191L21.0416 34.4374L20.7728 34.863L20.5264 35.2886L20.2128 35.9382L19.9664 36.5877L19.8096 37.1253L19.6752 37.8197L19.5856 38.4917L19.5408 39.0965L19.5185 39.6341L19.8768 39.4325L20.2128 39.2309L20.728 38.9621L21.1088 38.7829L21.7136 38.5589L22.184 38.4469L22.7216 38.3573L23.3264 38.3125L23.8415 38.3349L24.2895 38.4021L24.7375 38.5141L25.1855 38.6933L25.5439 38.8725L25.9023 39.0965L26.2607 39.3877L26.5295 39.6565L26.7311 39.9477L26.9103 40.2837L27.0223 40.6197L27.0447 40.7317V41.2916L26.9327 41.5828L26.7759 41.8292L26.5295 42.098L26.3055 42.21H26.2383L26.3055 42.0084L26.4175 41.6276L26.4399 41.5156V41.0676L26.3503 40.7317L26.2383 40.4629L26.0815 40.2389L25.9919 40.1269L25.7679 39.9477L25.4319 39.7685L25.0063 39.6341L24.3791 39.5221L23.7967 39.4549H23.0352L22.4976 39.5221L21.96 39.6341L21.4672 39.7685L21.0192 39.9477L20.5488 40.1941L20.1232 40.4629L19.72 40.7541L19.3393 41.0228L19.0705 41.202L18.6897 41.4484L18.2641 41.6948L17.9057 41.874L17.3457 42.0756L16.8529 42.21L16.1809 42.322L15.9345 42.3444H15.3073L14.9714 42.2996L14.4786 42.1876L14.1202 42.0532L14.053 41.986V41.9188L14.7922 41.8964L15.1506 41.8516L16.0241 41.65L16.5169 41.4932L17.0545 41.2692L17.6369 40.978L18.0177 40.7541L18.3985 40.4629L18.7345 40.2165L18.8241 40.1045V39.8357L18.8017 39.6341L18.7793 39.0293V37.8869L18.8465 37.2149L18.9585 36.6549L19.1153 36.1174L19.2945 35.6694L19.5408 35.1542L19.832 34.6614L20.2352 34.1238L20.5712 33.7878L20.952 33.4966L21.3552 33.183L21.7584 32.9366L22.1392 32.735L22.744 32.4662L23.192 32.287Z" fill="black"/>
<path d="M15.6209 13.6507L15.8673 13.6731L16.4049 13.8523L16.9201 14.0987L17.2561 14.3227L17.5697 14.5467L17.8609 14.7707L18.04 14.9275L18.2416 15.1739L18.5328 15.5323L18.936 16.137L19.048 16.3834V16.4506H18.8464L18.488 16.3386L18.1072 16.137L17.9953 16.0474H17.9281L17.7713 16.3162L17.6145 16.5178L17.4353 16.6746L17.1889 16.809L16.9425 16.8986L16.8305 16.921H16.6065L16.2929 16.8538L16.0689 16.7418L15.8449 16.5402L15.7105 16.3834L15.5985 16.1594L15.5313 15.8682V15.5771L15.5985 15.3979L15.7553 15.0843L15.9345 14.8379L15.9793 14.7259L15.5537 14.4571L15.3969 14.3003L15.3745 14.2331H15.6657L16.4721 14.4571L16.9425 14.6363H17.0097L16.7409 14.3675L16.3377 14.0763L15.9345 13.8523L15.6209 13.6731V13.6507Z" fill="black"/>
<path d="M46.8733 35.5V15.2H54.5293C55.641 15.2 56.6463 15.4852 57.5453 16.0555C58.454 16.6162 59.1741 17.3702 59.7058 18.3175C60.2375 19.2552 60.5033 20.2847 60.5033 21.406C60.5033 22.5467 60.2278 23.5858 59.6768 24.5235C59.1355 25.4612 58.4105 26.2103 57.5018 26.771C56.5931 27.3317 55.6023 27.612 54.5293 27.612H51.2233V35.5H46.8733ZM51.2233 23.262H54.0363C54.423 23.262 54.7758 23.1653 55.0948 22.972C55.4138 22.769 55.67 22.5032 55.8633 22.1745C56.0566 21.8458 56.1533 21.4833 56.1533 21.087C56.1533 20.6907 56.0566 20.3282 55.8633 19.9995C55.67 19.6708 55.4138 19.4098 55.0948 19.2165C54.7758 19.0135 54.423 18.912 54.0363 18.912H51.2233V23.262ZM68.4896 35.877C67.1556 35.877 65.9376 35.5338 64.8356 34.8475C63.7433 34.1612 62.8685 33.238 62.2111 32.078C61.5635 30.918 61.2396 29.6372 61.2396 28.2355C61.2396 27.1818 61.4281 26.1958 61.8051 25.2775C62.1821 24.3495 62.6993 23.5375 63.3566 22.8415C64.0236 22.1358 64.797 21.5848 65.6766 21.1885C66.5563 20.7922 67.494 20.594 68.4896 20.594C69.6496 20.594 70.7081 20.8502 71.6651 21.3625C72.6318 21.8652 73.4438 22.5515 74.1011 23.4215C74.7681 24.2818 75.2418 25.2533 75.5221 26.336C75.8025 27.4187 75.8315 28.5352 75.6091 29.6855H65.9376C66.073 30.0238 66.2518 30.3332 66.4741 30.6135C66.7061 30.8842 66.9865 31.1017 67.3151 31.266C67.6535 31.4303 68.045 31.5173 68.4896 31.527C68.915 31.5367 69.3065 31.4448 69.6641 31.2515C70.0315 31.0582 70.3505 30.7972 70.6211 30.4685L75.0581 31.498C74.4685 32.7837 73.5888 33.8373 72.4191 34.659C71.2495 35.471 69.9396 35.877 68.4896 35.877ZM65.7781 26.4955H71.2156C71.0803 26.0798 70.8773 25.7125 70.6066 25.3935C70.336 25.0745 70.017 24.8232 69.6496 24.6395C69.292 24.4558 68.9053 24.364 68.4896 24.364C68.0836 24.364 67.697 24.4558 67.3296 24.6395C66.972 24.8232 66.6578 25.0745 66.3871 25.3935C66.1261 25.7125 65.9231 26.0798 65.7781 26.4955ZM86.029 25.35H83.564V35.5H79.214V25.35H77.329V21H79.214V16.447H83.564V21H86.029V25.35ZM100.188 15.2H104.538V35.5H100.188V26.8H92.9958V35.5H88.6458V15.2H92.9958V22.45H100.188V15.2ZM118.116 21H122.466V35.5H118.102L117.899 34.195C117.541 34.6977 117.087 35.1037 116.536 35.413C115.994 35.7223 115.361 35.877 114.636 35.877C113.554 35.877 112.539 35.674 111.591 35.268C110.654 34.862 109.827 34.3013 109.112 33.586C108.396 32.861 107.836 32.0297 107.43 31.092C107.033 30.1447 106.835 29.1297 106.835 28.047C106.835 27.0127 107.024 26.046 107.401 25.147C107.778 24.248 108.305 23.4602 108.981 22.7835C109.668 22.0972 110.455 21.5607 111.345 21.174C112.244 20.7873 113.206 20.594 114.23 20.594C115.062 20.594 115.816 20.768 116.492 21.116C117.179 21.4543 117.788 21.8797 118.319 22.392L118.116 21ZM114.52 31.701C115.12 31.701 115.666 31.5463 116.159 31.237C116.652 30.9277 117.043 30.512 117.333 29.99C117.623 29.468 117.768 28.888 117.768 28.25C117.768 27.612 117.623 27.032 117.333 26.51C117.043 25.988 116.652 25.5723 116.159 25.263C115.666 24.9537 115.12 24.799 114.52 24.799C113.921 24.799 113.375 24.9537 112.882 25.263C112.398 25.5723 112.012 25.988 111.722 26.51C111.441 27.032 111.301 27.612 111.301 28.25C111.301 28.888 111.446 29.468 111.736 29.99C112.026 30.512 112.413 30.9277 112.896 31.237C113.389 31.5463 113.931 31.701 114.52 31.701ZM134.562 35.5H128.936L123.658 21H128.298L131.749 30.512L135.2 21H139.84L134.562 35.5ZM147.673 35.877C146.339 35.877 145.121 35.5338 144.019 34.8475C142.927 34.1612 142.052 33.238 141.395 32.078C140.747 30.918 140.423 29.6372 140.423 28.2355C140.423 27.1818 140.612 26.1958 140.989 25.2775C141.366 24.3495 141.883 23.5375 142.54 22.8415C143.207 22.1358 143.981 21.5848 144.86 21.1885C145.74 20.7922 146.678 20.594 147.673 20.594C148.833 20.594 149.892 20.8502 150.849 21.3625C151.815 21.8652 152.627 22.5515 153.285 23.4215C153.952 24.2818 154.425 25.2533 154.706 26.336C154.986 27.4187 155.015 28.5352 154.793 29.6855H145.121C145.257 30.0238 145.435 30.3332 145.658 30.6135C145.89 30.8842 146.17 31.1017 146.499 31.266C146.837 31.4303 147.229 31.5173 147.673 31.527C148.099 31.5367 148.49 31.4448 148.848 31.2515C149.215 31.0582 149.534 30.7972 149.805 30.4685L154.242 31.498C153.652 32.7837 152.772 33.8373 151.603 34.659C150.433 35.471 149.123 35.877 147.673 35.877ZM144.962 26.4955H150.399C150.264 26.0798 150.061 25.7125 149.79 25.3935C149.52 25.0745 149.201 24.8232 148.833 24.6395C148.476 24.4558 148.089 24.364 147.673 24.364C147.267 24.364 146.881 24.4558 146.513 24.6395C146.156 24.8232 145.841 25.0745 145.571 25.3935C145.31 25.7125 145.107 26.0798 144.962 26.4955ZM170.711 26.2345V35.5H166.361V27.4525C166.361 26.9982 166.25 26.5873 166.028 26.22C165.806 25.843 165.511 25.5482 165.143 25.3355C164.776 25.1132 164.365 25.002 163.911 25.002C163.457 25.002 163.041 25.1132 162.664 25.3355C162.297 25.5482 162.002 25.843 161.779 26.22C161.567 26.5873 161.46 26.9982 161.46 27.4525V35.5H157.11L157.096 21H161.446L161.46 21.9135C161.944 21.4978 162.495 21.174 163.113 20.942C163.732 20.71 164.385 20.594 165.071 20.594C166.115 20.594 167.062 20.8502 167.913 21.3625C168.764 21.8652 169.44 22.5418 169.943 23.3925C170.455 24.2432 170.711 25.1905 170.711 26.2345Z" fill="black"/>
</svg>
