<?xml version="1.0" encoding="UTF-8"?>
<svg version="1.1" viewBox="0 0 1785 2048" width="143" height="164" xmlns="http://www.w3.org/2000/svg">
<path transform="translate(688,149)" d="m0 0 8 1 6 5 11 14 9 10 12 13 9 9 8 6 15 9 24 14 22 11 9 5 9 3 43 1 27 3 25 5 16 5 12 5 4-1 9-17 6-8h1v8l-6 27-7 39-5 38-3 36-1 21v31l2 33 5 44 7 36 9 37 12 37 14 35 13 28 8 15 8 16 12-3 16-8 19-9 17-10 21-13 17-12 17-13 11-9 10-9 13-12 18-18 7-8 11-13 14-19 13-19 15-25 12-22 3-8v-4l-22-12-12-9-15-13-27-27-7-8-13-15-10-11-9-11-13-15-9-11-9-10-9-11-10-11-7-8-11-12-7-8-9-10-7-8-22-22-19-14-8-6v-1l8 1 12 6 11 7 14 11 13 12 18 18 7 8 12 14 16 17 12 12 14 11 8 7 15 11 16 11 20 13 25 15 27 14 27 13 6 5-1 7-2 3-1 10-7 30-8 26-14 35-14 30-10 18-9 15-23 34-8 10-13 15-16 17-10 10-8 7-10 9-14 11-18 12-18 13-19 13-18 11-19 9-24 11-7-6-9-13-13-22-14-26-13-27-10-26-6-18-15-55-6-24-5-28-3-22-2-20-1-17v-47l3-39 3-21v-5l-18-6-27-7-15-2-18-1-3-1 1-5 13-13 11-9 13-12 14-12 4-5h2l2-5-57 1-30 5-23 6-26 10-25 13-15 10-10 7-14 12-7 7-2 3h-2l-2 4-10 14-15 24-8 16-8 18-8 16-9 17-10 13-7 8-15 15-12 9-20 12-17 7-17 5-13 2-34 2h-119l18 11 14 9 9 10 5 10 2 10-3 9-6 10-14 14-14 9-16 8-19 8-28 8-29 6-21 3 12 36 7 16 11 21 8 12 13 15 9 9 14 11 13 9 20 12 23 12 34 14 23 7 23 5 34 4 16 1h20l31-3 20-4 30-10 25-11 23-12 15-10-1-5-11-11-5-7v-1h5l20 14 20 18 10 15 8 14 3 7-1 4-8-7-10-12-6-8-2-2-7 1-20 13-30 15-32 14-22 8-13 4h-3v2h10l50 6 36 6 32 8 26 9 27 12 28 15 21 13 2 3-1 4-50-11-29-5-47-7-15-2-2-1-91-11-47-6-39-7-25-6-26-8-21-8-23-10-22-10-22-12-16-9-14-10-10-8-12-11-8-8-9-11-13-18-10-16-12-23-8-19-5-17-3-17-1-9v-54l-1-26v-14l1-16 5-18 6-11 5-6 8-7 11-7 10-4 13-2h19l132 3h64l17-2 20-6 16-9 14-10 11-9 12-12 7-11 6-14 9-30 12-29 10-19 9-16 4-8 1-4-6 4-16 15-28 22-12 9-14 9-26 14-17 8-35 12-12 3h-5l1-4 14-20 16-24 11-17 14-26 10-22 13-34 16-40 8-18 10-19 8-12 9-12 11-12 9-8 17-11 15-8 19-8zm17 79-16 3-20 7-15 8-14 10-13 11-18 18-9 11-14 19-11 17-16 27-12 21-6 14 9-3 16-10 14-12 18-13 57-38 13-8 22-13 23-12 30-13 17-6 10-4 3-2-2-4-8-7-19-12-10-5-17-4z" fill="#1F1D1A"/>
<path transform="translate(1121,752)" d="m0 0 2 2 5 18 7 32 2 15 1 16v19l-2 27-4 35-3 14v6l11 8 16 10 17 13 16 13 14 12 13 12 10 10 9 11 14 17 13 18 10 14 11 17 15 25 12 21 14 29 11 28 13 37 14 39 17 48 9 25 12 34 7 12 2 3 2-22v-13l-4-40-5-43-3-21-3-16v-5l6 2 22 22 8 7 14 14 10 13 15 23 10 16 8 14 8 16 12 27 10 28 9 33 4 21 4 32 2 22 1 18v44l-2 42-4 40-5 23-10 24-9 14-8 10-11 11-14 10-15 8-11 4-21 4-9 1h-30l-25-2-18-1v-3l34-13 17-9 19-13 12-11 7-7 10-13 9-15 7-14 8-24 6-29 3-24 1-14v-45l-3-52-7-69-6-38-7-24-7-17-10-22-9-13-1-4-1 1v13l6 31 7 36 7 49 3 34v35l-2 21-6 22-8 20-8 15-14 21-13 16-13 13-8 7-11 9-16 10-21 10-28 11-24 8-8 1 1-4 18-10 14-8 11-7 13-12 8-9 12-16 9-15 8-17 6-18 4-19 2-21v-13l-2-22-6-28-5-17-11-28-8-17-12-22-11-19-11-16-11-13-9-10-9-9-8-7-13-11-17-13-19-14-2-3 3-1 13 4 26 10 17 9 10 7 11 8 14 12 7 9 6 7-3-9-6-21-11-28-11-25-14-29-8-17-12-22-10-18-15-24-13-18-11-16-12-16-11-13-9-11-9-10-7-8-15-16-19-19-11-9-16-13-7-6-1-7 4-17 3-25 1-17v-21l-2-30-3-22-7-28-7-20-5-10 1-4 5-6 10-7 14-11z" fill="#1F1D1A"/>
<path transform="translate(395,1788)" d="m0 0h36l27 2 25 4 17 5 16 8 11 8 13 11 7 7 7 8 13 10 20 12 16 8 14 6 23 7 15 3 30 3h70l40-3 30-4 37-7 39-9 35-10 36-12 28-10 23-8 25-8 49-13 33-7 37-6 29-3 21-1h81l45 3 33 4 26 5 27 7 27 8 29 10 26 11 24 11 36 18 19 10 15 9 4 4-1 3-30-7-28-6-63-10-63-8-40-4-43-3-27-1h-53l-44 3-47 5-41 6-42 8-49 12-43 12-28 8-36 9-26 5-66 10-45 5-30 2h-65l-29-3-32-6-28-8-17-7-19-11-17-12-15-10-21-10-28-10-25-7-28-6-37-5-28-2h-43l-31 2-35 4-30 5-42 9-46 15-4-1 8-8 18-12 24-14 24-13 20-9 37-13 33-9 21-4 25-3 14-1z" fill="#1F1D1A"/>
<path transform="translate(669,947)" d="m0 0 5 3-1 6-7 11-10 15-11 19-10 22-11 33-5 26-4 33v32l4 31 5 26 6 20 9 25 8 16 10 19 6 10 5 4 6-12 10-28 11-34 9-37 8-40 5-28 2-4 2 1v31l-1 56-4 64-7 67-7 49-10 58-8 41-6 33-11 46-15 47-11 29-5 10-4 5-9 4-13 5-8 7h-2v2h-2l-2 5-3 9 12-4 10-6 12-4 6-1h15l15 3 15 6 16 9 11 9 2 6h-24l-25 2-23 4-13 5-11 9-12 16-8 7-9-2-5-4-6-10-4-9-8 1-8 5-4 5-7 12-2 10 1 15 1 12-4 11-5 4-9-2-5-1-9-7-3-3-4-11-1-5v-19l3-15 5-12 8-11 7-7 8-5 25-10 5-3 3-12v-6l-1-1-2 3h-8l-26 5-8 3-9 10-8 14-8 11-15-5h-9l-8 3-5 5-4 7-2 6v9l2 25-2 10-3 3h-9l-9-5-6-8-3-16v-22l3-15 7-14 9-10 16-8 22-5 5-5 6-8 8-7 9-4 15-3h12l19 5 10 5 4 4 9-7 8-9 17-10 5-5 6-8 10-28 10-34 16-61 15-70v-12l-5-5-11-12-13-17-10-15-15-25-12-23-12-27-13-37-9-36-4-24-1-9v-54l4-26 6-25 10-28 8-16 10-18 10-14 18-20 11-9 16-13 16-12z" fill="#1F1D1A"/>
<path transform="translate(1035,1327)" d="m0 0h3l-1 4-11 8-18 13-14 11-11 9-10 9-17 17-10 14-7 11-12 19-11 19-14 29-11 29-7 24-6 31-4 30-2 27-1 24 16-9 15-9 23-12 17-8 27-10 21-5 24-4 27-2 23 1 20 3 20 5 20 8 16 8 16 10 16 13 12 12 9 13 8 15 5 15 1 5v25l-5 13-7 11-11 12-10 5h-3l3-9 5-17 1-5v-20l-4-15-5-12-7-10-4-5-10-8-15-8-19-6-28-5-26-3h-34l-24 3-24 5-22 6-20 8-21 11-19 12-18 13-17 12-12 8-17 11-19 11-16 8-25 9-22 6-30 5-11 1h-28l-15-2-22-5-16-6-3-3v-3l33-1 16-2 39-9 22-7 24-10 26-13 17-10 17-13 15-11 4-5v-12l-1-9-1-27v-51l3-30 5-25 7-24 8-20 11-23 13-22 18-24 15-15 17-13 18-14 18-11 17-9 27-12z" fill="#1F1D1A"/>
<path transform="translate(697,495)" d="m0 0 11 1 24 8 23 11 15 10 14 10 13 10 8 7 9 11 13 16 18 27 5 11v3h-9l-16-5-17-9-5-4h-3l-7 12-7 9-8 7-11 6-11 4-5 1h-10l-14-3-10-5-10-9-6-7-5-10-3-13v-13l3-8 7-14 8-11 2-5-19-12-7-7-1-3h13l36 10 21 8h3l-12-12-18-13-18-10-14-8z" fill="#1F1D1A"/>
</svg>
