<svg width="56" height="56" viewBox="0 0 56 56" fill="none" xmlns="http://www.w3.org/2000/svg">
<path fill-rule="evenodd" clip-rule="evenodd" d="M16.881 50.83C16.679 50.816 16.477 50.805 16.276 50.787C15.146 50.681 14.109 50.312 13.189 49.647C11.602 48.497 10.587 46.968 10.183 45.045C10.0363 44.3255 9.98682 43.5896 10.036 42.857C10.0906 41.9984 10.2581 41.1508 10.534 40.336C10.973 39.028 11.634 37.841 12.471 36.747C13.1013 35.9266 13.8147 35.1736 14.6 34.5C15.3319 33.8635 16.0111 33.1689 16.631 32.423C17.419 31.488 18.131 30.497 18.836 29.499C19.458 28.617 20.07 27.729 20.73 26.877C21.2206 26.2294 21.757 25.6178 22.335 25.047C23.065 24.34 23.871 23.742 24.821 23.353C25.5276 23.0633 26.2815 22.9067 27.045 22.891C27.9129 22.8696 28.7798 22.9614 29.624 23.164C30.8985 23.4751 32.0675 24.1194 33.011 25.031C33.673 25.661 34.233 26.375 34.753 27.121C35.306 27.913 35.813 28.734 36.336 29.545C36.926 30.458 37.536 31.357 38.216 32.207C38.8925 33.0531 39.6428 33.8375 40.458 34.551C41.4454 35.4088 42.3224 36.386 43.069 37.46C43.7093 38.3786 44.2201 39.381 44.587 40.439C44.8728 41.2635 45.0425 42.1237 45.091 42.995C45.161 44.327 44.931 45.601 44.326 46.799C43.766 47.909 42.956 48.802 41.94 49.509C41.192 50.03 40.385 50.426 39.497 50.646C39.1826 50.7254 38.8627 50.7813 38.54 50.813C38.4953 50.8176 38.4513 50.8243 38.408 50.833C38.366 50.856 38.32 50.838 38.275 50.843C38.238 50.849 38.2 50.833 38.165 50.855H37.337C37.304 50.832 37.267 50.848 37.232 50.844H37.057C36.351 50.821 35.666 50.674 34.982 50.515C33.825 50.245 32.69 49.89 31.538 49.597C30.6081 49.3531 29.6625 49.1733 28.708 49.059C28.0465 48.9889 27.3806 48.9682 26.716 48.997C26.186 49.015 25.658 49.097 25.136 49.194C24.106 49.388 23.097 49.664 22.087 49.94C21.019 50.234 19.951 50.525 18.857 50.704C18.412 50.776 17.967 50.838 17.514 50.834C17.421 50.832 17.329 50.846 17.235 50.844C17.115 50.837 16.998 50.858 16.88 50.831M37.29 5.02098C38.778 5.19998 39.916 5.95698 40.785 7.14998C41.38 7.96798 41.755 8.88598 41.987 9.86698C42.1816 10.7091 42.264 11.5733 42.232 12.437C42.1831 14.0143 41.8014 15.5635 41.112 16.983C40.6439 17.9756 40.0056 18.8786 39.226 19.651C38.523 20.339 37.728 20.889 36.8 21.232C36.148 21.472 35.478 21.592 34.784 21.55C33.582 21.481 32.561 21.003 31.704 20.169C30.972 19.457 30.474 18.595 30.129 17.642C29.8922 16.9771 29.7345 16.2867 29.659 15.585C29.6041 15.1051 29.5841 14.6218 29.599 14.139C29.635 13.0003 29.8383 11.893 30.209 10.817C30.5905 9.67623 31.1689 8.61114 31.918 7.66998C32.558 6.87598 33.305 6.20398 34.201 5.70798C34.8521 5.34062 35.5703 5.10737 36.313 5.02198C36.336 5.00898 36.361 5.01498 36.384 5.01298H36.455C36.49 5.00898 36.526 5.02498 36.557 5.00098H37.045C37.076 5.02598 37.112 5.00898 37.146 5.01298H37.218C37.241 5.01298 37.266 5.00798 37.29 5.02098ZM3.045 22.6C3.068 22.146 3.15 21.7 3.269 21.261C3.501 20.408 3.879 19.631 4.469 18.966C5.10322 18.2326 5.96525 17.7332 6.917 17.548C7.709 17.392 8.491 17.458 9.259 17.696C10.143 17.968 10.924 18.432 11.619 19.036C12.697 19.971 13.471 21.122 14.006 22.438C14.286 23.128 14.4797 23.8413 14.587 24.578C14.639 24.935 14.664 25.294 14.672 25.656C14.689 26.3374 14.6129 27.018 14.446 27.679C14.219 28.564 13.837 29.369 13.229 30.059C12.559 30.8387 11.6328 31.3539 10.617 31.512C9.851 31.636 9.098 31.552 8.362 31.314C7.372 30.993 6.522 30.441 5.774 29.726C5.05365 29.0324 4.45826 28.2198 4.014 27.324C3.57007 26.4481 3.26766 25.5075 3.118 24.537L3.048 24.019C3.03 23.94 3.038 23.859 3.018 23.781C3.009 23.748 3.014 23.717 3.013 23.683C3.007 23.642 3.026 23.597 3 23.556V22.922C3.04 22.864 3.02 22.8 3.024 22.738C3.028 22.692 3.016 22.642 3.045 22.6ZM13.498 12.443C13.503 11.185 13.682 10.052 14.103 8.95998C14.42 8.13498 14.856 7.38098 15.463 6.73198C16.116 6.02998 16.892 5.52798 17.828 5.29098C18.764 5.05398 19.684 5.12098 20.588 5.44798C21.385 5.73798 22.08 6.19298 22.698 6.76798C23.683 7.68398 24.388 8.79098 24.891 10.032C25.2103 10.8206 25.432 11.6356 25.556 12.477C25.6273 12.9536 25.668 13.4336 25.678 13.917C25.6907 14.5253 25.6479 15.1335 25.55 15.734C25.341 16.99 24.915 18.16 24.155 19.194C23.6946 19.8364 23.0963 20.3677 22.404 20.749C21.6342 21.1715 20.7571 21.3579 19.882 21.285C19.076 21.224 18.332 20.96 17.639 20.549C16.735 20.014 16.003 19.292 15.393 18.442C14.6814 17.4375 14.1613 16.3103 13.859 15.117C13.687 14.462 13.5759 13.7924 13.527 13.117C13.5047 12.893 13.495 12.668 13.498 12.443ZM52.998 23.338V23.484C52.943 24.697 52.618 25.838 52.095 26.926C51.687 27.7759 51.1507 28.558 50.505 29.245C49.67 30.13 48.701 30.821 47.548 31.235C46.8652 31.4879 46.1383 31.6002 45.411 31.565C44.3552 31.5196 43.351 31.0958 42.582 30.371C41.924 29.759 41.491 29.007 41.217 28.161C40.9749 27.4062 40.8666 26.615 40.897 25.823C40.951 24.071 41.504 22.479 42.464 21.022C42.7869 20.5298 43.1596 20.0721 43.576 19.656C44.433 18.802 45.413 18.146 46.574 17.773C47.2263 17.5586 47.914 17.473 48.599 17.521C49.6289 17.5894 50.602 18.0177 51.348 18.731C52.044 19.388 52.484 20.199 52.749 21.111C52.896 21.614 52.982 22.129 52.999 22.654V22.801C52.9937 22.9799 52.9927 23.159 52.998 23.338Z" fill="#F5A623"/>
</svg>
