<svg width="32" height="32" viewBox="0 0 32 32" fill="none" xmlns="http://www.w3.org/2000/svg">
<path d="M12.3355 2.32812L12.4788 2.34375L12.5863 2.42188L12.7835 2.64062L12.9447 2.79688L13.1598 3L13.321 3.14062L13.4644 3.23438L13.7332 3.375L14.1633 3.59375L14.5575 3.76562L14.7188 3.84375L14.88 3.89062L15.6506 3.90625L16.1344 3.95312L16.5824 4.03125L16.8691 4.10938L17.0842 4.1875L17.1558 4.17188L17.3171 3.90625L17.4246 3.78125H17.4425V3.90625L17.335 4.32812L17.2096 4.9375L17.12 5.53125L17.0662 6.09375L17.0483 6.42188V6.90625L17.0842 7.42188L17.1737 8.10938L17.2992 8.67188L17.4605 9.25L17.6755 9.82812L17.9264 10.375L18.1593 10.8125L18.3027 11.0469L18.446 11.2969L18.6611 11.25L18.9478 11.125L19.2883 10.9844L19.5929 10.8281L19.9692 10.625L20.2738 10.4375L20.5785 10.2344L20.7756 10.0938L20.9548 9.95312L21.1877 9.76562L21.5103 9.48438L21.6357 9.35938L21.8328 9.15625L22.0837 8.85938L22.3167 8.5625L22.5855 8.17188L22.8005 7.82812L22.8543 7.70312V7.64062L22.46 7.45312L22.245 7.3125L21.9762 7.10938L21.4924 6.6875L21.3669 6.5625L21.134 6.32812L20.9548 6.15625L20.7935 5.98438L20.5606 5.75L20.3993 5.57812L20.238 5.42188L20.0767 5.25L19.8975 5.07812L19.7721 4.95312L19.575 4.76562L19.4495 4.64062L19.2883 4.48438L19.1628 4.35938L18.7686 4.01562L18.4281 3.79688L18.2848 3.70312V3.6875L18.4281 3.70312L18.6432 3.79688L18.8403 3.90625L19.0911 4.07812L19.3241 4.26562L19.6467 4.54688L19.7721 4.67188L19.9871 4.89062L20.2738 5.15625L20.4889 5.34375L20.7397 5.51562L20.8831 5.625L21.1519 5.79688L21.4386 5.96875L21.797 6.17188L22.245 6.40625L22.7288 6.625L23.2126 6.82812L23.3202 6.90625L23.3022 7.01562L23.2664 7.0625L23.2485 7.21875L23.1231 7.6875L22.9797 8.09375L22.7288 8.64062L22.4779 9.10938L22.2987 9.39062L22.1375 9.625L21.7253 10.1562L21.582 10.3125L21.349 10.5469L21.0623 10.8125L20.8831 10.9688L20.7397 11.0781L20.5606 11.2188L20.3097 11.3906L19.9871 11.5781L19.6646 11.7812L19.3241 11.9844L19.0015 12.1562L18.6611 12.2969L18.231 12.4688L18.1056 12.375L17.9443 12.1719L17.7113 11.8281L17.4605 11.4219L17.2275 11L17.0483 10.5938L16.9408 10.3125L16.672 9.45312L16.5645 9.07812L16.4749 8.64062L16.4211 8.29688L16.3853 7.98438L16.3674 7.71875V6.98438L16.4211 6.375L16.4749 6.04688V5.96875L16.1523 5.875L15.6685 5.76562L15.3997 5.73438L15.0772 5.71875L15.0234 5.70312L15.0413 5.625L15.2743 5.42188L15.4714 5.28125L15.7043 5.09375L15.9552 4.90625L16.0269 4.82812H16.0627L16.0986 4.75L15.0772 4.76562L14.5396 4.84375L14.1274 4.9375L13.6615 5.09375L13.2135 5.29688L12.9447 5.45312L12.7655 5.5625L12.5147 5.75L12.3892 5.85938L12.3534 5.90625H12.3175L12.2817 5.96875L12.1025 6.1875L11.8337 6.5625L11.6904 6.8125L11.547 7.09375L11.4036 7.34375L11.2424 7.60938L11.0632 7.8125L10.9377 7.9375L10.6689 8.17188L10.4539 8.3125L10.0955 8.5L9.79088 8.60938L9.48625 8.6875L9.2533 8.71875L8.64403 8.75H6.5116L6.83415 8.92188L7.08503 9.0625L7.2463 9.21875L7.3359 9.375L7.37174 9.53125L7.31798 9.67188L7.21046 9.82812L6.95959 10.0469L6.70872 10.1875L6.422 10.3125L6.08153 10.4375L5.57978 10.5625L5.06011 10.6562L4.6838 10.7031L4.89884 11.2656L5.02427 11.5156L5.22139 11.8438L5.36475 12.0312L5.5977 12.2656L5.75898 12.4062L6.00985 12.5781L6.24281 12.7188L6.6012 12.9062L7.01335 13.0938L7.62261 13.3125L8.03476 13.4219L8.44691 13.5L9.05618 13.5625L9.34289 13.5781H9.70129L10.2568 13.5312L10.6152 13.4688L11.1528 13.3125L11.6008 13.1406L12.0129 12.9531L12.2817 12.7969L12.2638 12.7188L12.0667 12.5469L11.9771 12.4375V12.4219H12.0667L12.4251 12.6406L12.7835 12.9219L12.9626 13.1562L13.106 13.375L13.1598 13.4844L13.1418 13.5469L12.9985 13.4375L12.8193 13.25L12.7118 13.125L12.6759 13.0938L12.5505 13.1094L12.1921 13.3125L11.6545 13.5469L11.0811 13.7656L10.6869 13.8906L10.4539 13.9531H10.4001V13.9844H10.5793L11.4753 14.0781L12.1204 14.1719L12.6939 14.2969L13.1598 14.4375L13.6436 14.625L14.1453 14.8594L14.5217 15.0625L14.5575 15.1094L14.5396 15.1719L13.6436 15L13.1239 14.9219L12.2817 14.8125L12.0129 14.7812L11.9771 14.7656L10.3464 14.5938L9.50417 14.5L8.80531 14.3906L8.35732 14.2969L7.89141 14.1719L7.5151 14.0469L7.10295 13.8906L6.70872 13.7344L6.31448 13.5469L6.02777 13.4062L5.7769 13.25L5.5977 13.125L5.38267 12.9531L5.23931 12.8281L5.07803 12.6562L4.84508 12.375L4.66588 12.125L4.45085 11.7656L4.30749 11.4688L4.21789 11.2031L4.16414 10.9375L4.14622 10.7969V9.95312L4.1283 9.54688V9.32812L4.14622 9.07812L4.23581 8.79688L4.34333 8.625L4.43293 8.53125L4.57629 8.42188L4.7734 8.3125L4.9526 8.25L5.18555 8.21875H5.52602L7.89141 8.26562H9.03826L9.34289 8.23438L9.70129 8.14062L9.988 8L10.2389 7.84375L10.436 7.70312L10.651 7.51562L10.7765 7.34375L10.884 7.125L11.0453 6.65625L11.2603 6.20312L11.4395 5.90625L11.6008 5.65625L11.6724 5.53125L11.6904 5.46875L11.5828 5.53125L11.2961 5.76562L10.7944 6.10938L10.5793 6.25L10.3285 6.39062L9.86256 6.60938L9.55793 6.73438L8.93074 6.92188L8.71571 6.96875H8.62611L8.64403 6.90625L8.8949 6.59375L9.18162 6.21875L9.37873 5.95312L9.62961 5.54688L9.8088 5.20312L10.0418 4.67188L10.3285 4.04688L10.4718 3.76562L10.651 3.46875L10.7944 3.28125L10.9557 3.09375L11.1528 2.90625L11.314 2.78125L11.6187 2.60938L11.8875 2.48438L12.2279 2.35938L12.3355 2.32812ZM12.6401 3.5625L12.3534 3.60938L11.995 3.71875L11.7262 3.84375L11.4753 4L11.2424 4.17188L10.9198 4.45312L10.7585 4.625L10.5077 4.92188L10.3106 5.1875L10.0238 5.60938L9.8088 5.9375L9.70129 6.15625L9.86256 6.10938L10.1493 5.95312L10.4001 5.76562L10.7227 5.5625L11.7441 4.96875L11.9771 4.84375L12.3713 4.64062L12.7835 4.45312L13.321 4.25L13.6257 4.15625L13.8049 4.09375L13.8586 4.0625L13.8228 4L13.6794 3.89062L13.339 3.70312L13.1598 3.625L12.8551 3.5625H12.6401Z" fill="black"/>
<path d="M20.0947 11.75L20.1305 11.7812L20.2201 12.0625L20.3455 12.5625L20.3814 12.7969L20.3993 13.0469V13.3438L20.3635 13.7656L20.2918 14.3125L20.238 14.5312V14.625L20.4351 14.75L20.7219 14.9062L21.0265 15.1094L21.3132 15.3125L21.5641 15.5L21.797 15.6875L21.9762 15.8438L22.1375 16.0156L22.3884 16.2812L22.6213 16.5625L22.8005 16.7812L22.9976 17.0469L23.2664 17.4375L23.4815 17.7656L23.7323 18.2188L23.9295 18.6562L24.1624 19.2344L24.4133 19.8438L24.7179 20.5938L24.8792 20.9844L25.0942 21.5156L25.2197 21.7031L25.2555 21.75L25.2913 21.4062V21.2031L25.2197 20.5781L25.1301 19.9062L25.0763 19.5781L25.0225 19.3281V19.25L25.1301 19.2812L25.5243 19.625L25.6677 19.7344L25.9185 19.9531L26.0977 20.1562L26.3665 20.5156L26.5457 20.7656L26.6891 20.9844L26.8324 21.2344L27.0475 21.6562L27.2267 22.0938L27.3879 22.6094L27.4596 22.9375L27.5313 23.4375L27.5671 23.7812L27.585 24.0625V24.75L27.5492 25.4062L27.4775 26.0312L27.3879 26.3906L27.2087 26.7656L27.0475 26.9844L26.9041 27.1406L26.707 27.3125L26.4561 27.4688L26.1873 27.5938L25.9902 27.6562L25.6139 27.7188L25.4526 27.7344H24.915L24.467 27.7031L24.1445 27.6875V27.6406L24.7538 27.4375L25.0584 27.2969L25.3989 27.0938L25.6139 26.9219L25.7393 26.8125L25.9185 26.6094L26.0798 26.375L26.2052 26.1562L26.3486 25.7812L26.4561 25.3281L26.5099 24.9531L26.5278 24.7344V24.0312L26.474 23.2188L26.3486 22.1406L26.2411 21.5469L26.1156 21.1719L25.9902 20.9062L25.811 20.5625L25.6497 20.3594L25.6318 20.2969L25.6139 20.3125V20.5156L25.7214 21L25.8469 21.5625L25.9723 22.3281L26.026 22.8594V23.4062L25.9902 23.7344L25.8827 24.0781L25.7393 24.3906L25.596 24.625L25.3451 24.9531L25.1121 25.2031L24.8792 25.4062L24.7358 25.5156L24.5387 25.6562L24.252 25.8125L23.8757 25.9688L23.3739 26.1406L22.9439 26.2656L22.8005 26.2812L22.8184 26.2188L23.141 26.0625L23.3919 25.9375L23.589 25.8281L23.8219 25.6406L23.9653 25.5L24.1803 25.25L24.3416 25.0156L24.485 24.75L24.5925 24.4688L24.6642 24.1719L24.7 23.8438V23.6406L24.6642 23.2969L24.5566 22.8594L24.467 22.5938L24.2699 22.1562L24.1266 21.8906L23.9115 21.5469L23.7144 21.25L23.5173 21L23.3202 20.7969L23.1589 20.6406L22.9976 20.5L22.8543 20.3906L22.6213 20.2188L22.3167 20.0156L21.9762 19.7969L21.9404 19.75L21.9941 19.7344L22.2271 19.7969L22.693 19.9531L22.9976 20.0938L23.1768 20.2031L23.3739 20.3281L23.6248 20.5156L23.7503 20.6562L23.8578 20.7656L23.804 20.625L23.6965 20.2969L23.4994 19.8594L23.3023 19.4688L23.0514 19.0156L22.908 18.75L22.693 18.4062L22.5138 18.125L22.245 17.75L22.0121 17.4688L21.8149 17.2188L21.5999 16.9688L21.4028 16.7656L21.2415 16.5938L21.0802 16.4375L20.9548 16.3125L20.686 16.0625L20.3455 15.7656L20.1484 15.625L19.8617 15.4219L19.7363 15.3281L19.7184 15.2188L19.79 14.9531L19.8438 14.5625L19.8617 14.2969V13.9688L19.8259 13.5L19.7721 13.1562L19.6467 12.7188L19.5212 12.4062L19.4316 12.25L19.4496 12.1875L19.5392 12.0938L19.7184 11.9844L19.9692 11.8125L20.0947 11.75Z" fill="black"/>
<path d="M7.08497 27.9375H7.73008L8.21391 27.9688L8.6619 28.0312L8.96653 28.1094L9.25324 28.2344L9.45036 28.3594L9.68331 28.5312L9.80875 28.6406L9.93419 28.7656L10.1671 28.9219L10.5255 29.1094L10.8122 29.2344L11.0631 29.3281L11.4753 29.4375L11.7441 29.4844L12.2817 29.5312H13.536L14.2528 29.4844L14.7904 29.4219L15.4534 29.3125L16.1523 29.1719L16.7795 29.0156L17.4246 28.8281L17.9263 28.6719L18.3385 28.5469L18.7865 28.4219L19.6645 28.2188L20.2559 28.1094L20.9189 28.0156L21.4386 27.9688L21.8149 27.9531H23.2664L24.0727 28L24.6641 28.0625L25.13 28.1406L25.6138 28.25L26.0976 28.375L26.6173 28.5312L27.0832 28.7031L27.5133 28.875L28.1584 29.1562L28.4989 29.3125L28.7677 29.4531L28.8393 29.5156L28.8214 29.5625L28.2838 29.4531L27.7821 29.3594L26.6532 29.2031L25.5242 29.0781L24.8074 29.0156L24.0369 28.9688L23.5531 28.9531H22.6033L21.8149 29L20.9726 29.0781L20.2379 29.1719L19.4853 29.2969L18.6073 29.4844L17.8367 29.6719L17.335 29.7969L16.6899 29.9375L16.224 30.0156L15.0413 30.1719L14.2349 30.25L13.6973 30.2812H12.5325L12.0129 30.2344L11.4394 30.1406L10.9377 30.0156L10.6331 29.9062L10.2926 29.7344L9.98795 29.5469L9.71915 29.3906L9.34284 29.2344L8.84109 29.0781L8.3931 28.9688L7.89135 28.875L7.22833 28.7969L6.72658 28.7656H5.95604L5.40053 28.7969L4.77335 28.8594L4.23576 28.9375L3.48314 29.0781L2.65884 29.3125L2.58716 29.2969L2.73051 29.1719L3.05307 28.9844L3.48314 28.7656L3.91321 28.5625L4.2716 28.4219L4.93462 28.2188L5.52597 28.0781L5.90228 28.0156L6.35027 27.9688L6.60114 27.9531L7.08497 27.9375Z" fill="black"/>
<path d="M11.995 14.7969L12.0846 14.8437L12.0666 14.9375L11.9412 15.1094L11.762 15.3437L11.5649 15.6406L11.3857 15.9844L11.1886 16.5L11.099 16.9062L11.0273 17.4219V17.9219L11.099 18.4062L11.1886 18.8125L11.2961 19.125L11.4574 19.5156L11.6007 19.7656L11.7799 20.0625L11.8874 20.2187L11.977 20.2812L12.0846 20.0937L12.2638 19.6562L12.4609 19.125L12.6221 18.5469L12.7655 17.9219L12.8551 17.4844L12.8909 17.4219L12.9268 17.4375V17.9219L12.9089 18.7969L12.8372 19.7969L12.7117 20.8437L12.5863 21.6094L12.4071 22.5156L12.2638 23.1562L12.1562 23.6719L11.9591 24.3906L11.6903 25.125L11.4932 25.5781L11.4036 25.7344L11.3319 25.8125L11.1707 25.875L10.9377 25.9531L10.7943 26.0625H10.7585V26.0937H10.7227L10.6868 26.1719L10.6331 26.3125L10.8481 26.25L11.0273 26.1562L11.2423 26.0937L11.3499 26.0781H11.6186L11.8874 26.125L12.1562 26.2187L12.4429 26.3594L12.6401 26.5L12.6759 26.5937H12.2458L11.7978 26.625L11.3857 26.6875L11.1527 26.7656L10.9556 26.9062L10.7406 27.1562L10.5972 27.2656L10.436 27.2344L10.3464 27.1719L10.2388 27.0156L10.1672 26.875L10.0238 26.8906L9.88045 26.9687L9.80877 27.0469L9.68333 27.2344L9.64749 27.3906L9.66541 27.625L9.68333 27.8125L9.61165 27.9844L9.52206 28.0469L9.36078 28.0156L9.27118 28L9.10991 27.8906L9.05615 27.8437L8.98447 27.6719L8.96655 27.5937V27.2969L9.02031 27.0625L9.10991 26.875L9.25326 26.7031L9.3787 26.5937L9.52206 26.5156L9.97005 26.3594L10.0596 26.3125L10.1134 26.125V26.0312L10.0955 26.0156L10.0596 26.0625H9.91629L9.45038 26.1406L9.30702 26.1875L9.14575 26.3437L9.00239 26.5625L8.85903 26.7344L8.59024 26.6562H8.42896L8.28561 26.7031L8.19601 26.7812L8.12433 26.8906L8.08849 26.9844V27.125L8.12433 27.5156L8.08849 27.6719L8.03473 27.7187H7.87346L7.71218 27.6406L7.60466 27.5156L7.5509 27.2656V26.9219L7.60466 26.6875L7.7301 26.4687L7.89138 26.3125L8.17809 26.1875L8.57232 26.1094L8.66192 26.0312L8.76943 25.9062L8.91279 25.7969L9.07407 25.7344L9.34286 25.6875H9.5579L9.89837 25.7656L10.0776 25.8437L10.1492 25.9062L10.3105 25.7969L10.4539 25.6562L10.7585 25.5L10.8481 25.4219L10.9556 25.2969L11.1348 24.8594L11.314 24.3281L11.6007 23.375L11.8695 22.2812V22.0937L11.7799 22.0156L11.5828 21.8281L11.3499 21.5625L11.1707 21.3281L10.9019 20.9375L10.6868 20.5781L10.4718 20.1562L10.2388 19.5781L10.0776 19.0156L10.0059 18.6406L9.98797 18.5V17.6562L10.0596 17.25L10.1672 16.8594L10.3464 16.4219L10.4897 16.1719L10.6689 15.8906L10.8481 15.6719L11.1707 15.3594L11.3678 15.2187L11.6545 15.0156L11.9412 14.8281L11.995 14.7969Z" fill="black"/>
<path d="M18.5535 20.7344H18.6073L18.5893 20.7969L18.3922 20.9219L18.0697 21.125L17.8188 21.2969L17.6217 21.4375L17.4425 21.5781L17.1379 21.8438L16.9587 22.0625L16.8332 22.2344L16.6182 22.5312L16.4211 22.8281L16.1702 23.2812L15.9731 23.7344L15.8476 24.1094L15.7401 24.5938L15.6684 25.0625L15.6326 25.4844L15.6147 25.8594L15.9014 25.7188L16.1702 25.5781L16.5823 25.3906L16.887 25.2656L17.3708 25.1094L17.7471 25.0312L18.1772 24.9688L18.661 24.9375L19.0732 24.9531L19.4316 25L19.7899 25.0781L20.1483 25.2031L20.4351 25.3281L20.7218 25.4844L21.0085 25.6875L21.2235 25.875L21.3848 26.0781L21.5281 26.3125L21.6177 26.5469L21.6357 26.625V27.0156L21.5461 27.2188L21.4206 27.3906L21.2235 27.5781L21.0443 27.6562H20.9906L21.0443 27.5156L21.1339 27.25L21.1518 27.1719V26.8594L21.0802 26.625L20.9906 26.4375L20.8651 26.2812L20.7934 26.2031L20.6142 26.0781L20.3455 25.9531L20.005 25.8594L19.5032 25.7812L19.0373 25.7344H18.4281L17.998 25.7812L17.5679 25.8594L17.1737 25.9531L16.8153 26.0781L16.439 26.25L16.0985 26.4375L15.776 26.6406L15.4713 26.8281L15.2563 26.9531L14.9517 27.125L14.6112 27.2969L14.3245 27.4219L13.8765 27.5625L13.4823 27.6562L12.9447 27.7344L12.7476 27.75H12.2458L11.977 27.7188L11.5828 27.6406L11.2961 27.5469L11.2423 27.5V27.4531L11.8337 27.4375L12.1204 27.4062L12.8192 27.2656L13.2135 27.1562L13.6435 27L14.1094 26.7969L14.4141 26.6406L14.7187 26.4375L14.9875 26.2656L15.0592 26.1875V26L15.0413 25.8594L15.0233 25.4375V24.6406L15.0771 24.1719L15.1667 23.7812L15.2921 23.4062L15.4355 23.0938L15.6326 22.7344L15.8656 22.3906L16.1881 22.0156L16.4569 21.7812L16.7615 21.5781L17.0841 21.3594L17.4066 21.1875L17.7113 21.0469L18.1951 20.8594L18.5535 20.7344Z" fill="black"/>
<path d="M12.4967 7.73438L12.6938 7.75L13.1239 7.875L13.536 8.04688L13.8048 8.20312L14.0557 8.35938L14.2886 8.51562L14.432 8.625L14.5933 8.79688L14.8262 9.04688L15.1488 9.46875L15.2384 9.64062V9.6875H15.0771L14.7904 9.60938L14.4857 9.46875L14.3962 9.40625H14.3424L14.217 9.59375L14.0915 9.73438L13.9482 9.84375L13.751 9.9375L13.5539 10L13.4643 10.0156H13.2851L13.0343 9.96875L12.8551 9.89062L12.6759 9.75L12.5684 9.64062L12.4788 9.48438L12.425 9.28125V9.07812L12.4788 8.95312L12.6042 8.73438L12.7476 8.5625L12.7834 8.48438L12.4429 8.29688L12.3175 8.1875L12.2996 8.14062H12.5325L13.1776 8.29688L13.5539 8.42188H13.6077L13.3927 8.23438L13.0701 8.03125L12.7476 7.875L12.4967 7.75V7.73438Z" fill="black"/>
</svg>
